<svg width="139" height="39" viewBox="0 0 139 39" fill="none" xmlns="http://www.w3.org/2000/svg">
<path d="M38 29.4518C38 43.5084 29.4934 26.4218 19 26.4218C8.50659 26.4218 0 43.5084 0 29.4518C0 15.3952 8.50659 4 19 4C29.4934 4 38 15.3952 38 29.4518Z" fill="#F5F3FF"/>
<line x1="6" y1="9" x2="32" y2="9" stroke="#09090B" stroke-width="2"/>
<line x1="2" y1="15" x2="36" y2="15" stroke="#09090B" stroke-width="2"/>
<path d="M52.2955 31V7.72727H56.5114V27.4659H66.7614V31H52.2955ZM81.3636 23.6591V13.5455H85.4773V31H81.4886V27.8977H81.3068C80.9129 28.875 80.2652 29.6742 79.3636 30.2955C78.4697 30.9167 77.3674 31.2273 76.0568 31.2273C74.9129 31.2273 73.9015 30.9735 73.0227 30.4659C72.1515 29.9508 71.4697 29.2045 70.9773 28.2273C70.4848 27.2424 70.2386 26.053 70.2386 24.6591V13.5455H74.3523V24.0227C74.3523 25.1288 74.6553 26.0076 75.2614 26.6591C75.8674 27.3106 76.6629 27.6364 77.6477 27.6364C78.2538 27.6364 78.8409 27.4886 79.4091 27.1932C79.9773 26.8977 80.4432 26.4583 80.8068 25.875C81.178 25.2841 81.3636 24.5455 81.3636 23.6591ZM93.821 20.7727V31H89.7074V13.5455H93.6392V16.5114H93.8438C94.2453 15.5341 94.8854 14.7576 95.7642 14.1818C96.6506 13.6061 97.7453 13.3182 99.0483 13.3182C100.253 13.3182 101.302 13.5758 102.196 14.0909C103.098 14.6061 103.795 15.3523 104.287 16.3295C104.787 17.3068 105.033 18.4924 105.026 19.8864V31H100.912V20.5227C100.912 19.3561 100.609 18.4432 100.003 17.7841C99.4044 17.125 98.5748 16.7955 97.5142 16.7955C96.7945 16.7955 96.1544 16.9545 95.5938 17.2727C95.0407 17.5833 94.6051 18.0341 94.2869 18.625C93.9763 19.2159 93.821 19.9318 93.821 20.7727ZM114.23 31.3523C113.124 31.3523 112.128 31.1553 111.241 30.7614C110.363 30.3598 109.666 29.7689 109.151 28.9886C108.643 28.2083 108.389 27.2462 108.389 26.1023C108.389 25.1174 108.571 24.303 108.935 23.6591C109.298 23.0152 109.795 22.5 110.423 22.1136C111.052 21.7273 111.76 21.4356 112.548 21.2386C113.344 21.0341 114.166 20.8864 115.014 20.7955C116.037 20.6894 116.866 20.5947 117.503 20.5114C118.139 20.4205 118.601 20.2841 118.889 20.1023C119.185 19.9129 119.332 19.6212 119.332 19.2273V19.1591C119.332 18.303 119.079 17.6402 118.571 17.1705C118.063 16.7008 117.332 16.4659 116.378 16.4659C115.37 16.4659 114.571 16.6856 113.98 17.125C113.397 17.5644 113.003 18.0833 112.798 18.6818L108.957 18.1364C109.26 17.0758 109.76 16.1894 110.457 15.4773C111.154 14.7576 112.007 14.2197 113.014 13.8636C114.022 13.5 115.135 13.3182 116.355 13.3182C117.196 13.3182 118.033 13.4167 118.866 13.6136C119.7 13.8106 120.461 14.1364 121.151 14.5909C121.84 15.0379 122.393 15.6477 122.81 16.4205C123.234 17.1932 123.446 18.1591 123.446 19.3182V31H119.491V28.6023H119.355C119.105 29.0871 118.753 29.5417 118.298 29.9659C117.851 30.3826 117.287 30.7197 116.605 30.9773C115.931 31.2273 115.139 31.3523 114.23 31.3523ZM115.298 28.3295C116.124 28.3295 116.84 28.1667 117.446 27.8409C118.052 27.5076 118.518 27.0682 118.844 26.5227C119.177 25.9773 119.344 25.3826 119.344 24.7386V22.6818C119.215 22.7879 118.995 22.8864 118.685 22.9773C118.382 23.0682 118.041 23.1477 117.662 23.2159C117.283 23.2841 116.908 23.3447 116.537 23.3977C116.166 23.4508 115.844 23.4962 115.571 23.5341C114.957 23.6174 114.408 23.7538 113.923 23.9432C113.438 24.1326 113.056 24.3977 112.776 24.7386C112.495 25.072 112.355 25.5038 112.355 26.0341C112.355 26.7917 112.632 27.3636 113.185 27.75C113.738 28.1364 114.442 28.3295 115.298 28.3295ZM127.582 31V13.5455H131.571V16.4545H131.753C132.071 15.447 132.616 14.6705 133.389 14.125C134.17 13.572 135.06 13.2955 136.06 13.2955C136.287 13.2955 136.541 13.3068 136.821 13.3295C137.109 13.3447 137.348 13.3712 137.537 13.4091V17.1932C137.363 17.1326 137.086 17.0795 136.707 17.0341C136.336 16.9811 135.976 16.9545 135.628 16.9545C134.878 16.9545 134.204 17.1174 133.605 17.4432C133.014 17.7614 132.548 18.2045 132.207 18.7727C131.866 19.3409 131.696 19.9962 131.696 20.7386V31H127.582Z" fill="#F5F3FF"/>
</svg>
